<svg width="28" height="29" viewBox="0 0 28 29" fill="none" xmlns="http://www.w3.org/2000/svg">
<path d="M6.99992 24.2653L5.83325 25.432M20.9999 24.2653L22.1666 25.432" stroke="#B6B6B6" stroke-width="1.5" stroke-linecap="round"/>
<path d="M3.5 14.9319V16.0986C3.5 19.9484 3.5 21.8733 4.69598 23.0693C5.89196 24.2653 7.81686 24.2653 11.6667 24.2653H16.3333C20.1831 24.2653 22.108 24.2653 23.304 23.0693C24.5 21.8733 24.5 19.9484 24.5 16.0986V14.9319" stroke="#B6B6B6" stroke-width="1.5" stroke-linecap="round" stroke-linejoin="round"/>
<path d="M2.33325 14.9319H25.6666" stroke="#B6B6B6" stroke-width="1.5" stroke-linecap="round"/>
<path d="M4.66675 14.9319V7.37591C4.66675 5.75001 5.98481 4.43195 7.61071 4.43195C8.91535 4.43195 10.0644 5.29059 10.434 6.54176L10.5001 6.76528" stroke="#B6B6B6" stroke-width="1.5" stroke-linecap="round"/>
<path d="M9.33325 7.93194L12.2499 5.5986" stroke="#B6B6B6" stroke-width="1.5" stroke-linecap="round"/>
</svg>
