<svg width="36" height="36" viewBox="0 0 36 36" fill="none" xmlns="http://www.w3.org/2000/svg">
<path d="M31.5 33V11.2273C31.5 9.58107 31.5 8.75793 31.0267 8.06326C30.5533 7.3686 29.6814 6.912 27.9376 5.99881L25.7189 4.83691C22.9814 3.40339 21.6126 2.68665 20.5563 3.13068C19.5 3.57472 19.5 4.86688 19.5 7.45119V13.5" stroke="black" stroke-width="2.25" stroke-linejoin="round"/>
<path d="M33 33H3" stroke="black" stroke-width="2.25" stroke-linecap="round" stroke-linejoin="round"/>
<path d="M31.5 12H28.5M31.5 16.5H28.5M31.5 21H28.5" stroke="black" stroke-width="2.25" stroke-linecap="round" stroke-linejoin="round"/>
<path d="M12 19.5C12 16.6716 12 15.2574 12.8787 14.3787C13.7574 13.5 15.1716 13.5 18 13.5C20.8284 13.5 22.2426 13.5 23.1213 14.3787C24 15.2574 24 16.6716 24 19.5V33H12V19.5Z" stroke="black" stroke-width="2.25" stroke-linejoin="round"/>
<path d="M17.25 19.5H18.75M17.25 24H18.75" stroke="black" stroke-width="2.25" stroke-linecap="round"/>
<path d="M5.25 24C6.49264 24 7.5 22.6569 7.5 21C7.5 19.3431 6.49264 18 5.25 18C4.00736 18 3 19.3431 3 21C3 22.6569 4.00736 24 5.25 24Z" stroke="black" stroke-width="2.25"/>
<path d="M5.25 24V33" stroke="black" stroke-width="2.25" stroke-linecap="round"/>
</svg>
