<svg width="28" height="29" viewBox="0 0 28 29" fill="none" xmlns="http://www.w3.org/2000/svg">
<path d="M25.6666 21.3486H2.33325" stroke="#B6B6B6" stroke-width="1.5" stroke-linecap="round" stroke-linejoin="round"/>
<path d="M25.6666 25.4319V19.5986C25.6666 17.3987 25.6666 16.2988 24.9832 15.6154C24.2997 14.9319 23.1998 14.9319 20.9999 14.9319H6.99992C4.80003 14.9319 3.70008 14.9319 3.01667 15.6154C2.33325 16.2988 2.33325 17.3987 2.33325 19.5986V25.4319" stroke="#B6B6B6" stroke-width="1.5" stroke-linecap="round" stroke-linejoin="round"/>
<path d="M12.8333 14.9319V12.8476C12.8333 12.4035 12.7666 12.2549 12.4247 12.0799C11.7128 11.7154 10.8484 11.4319 9.91667 11.4319C8.98491 11.4319 8.12064 11.7154 7.40862 12.0799C7.06674 12.2549 7 12.4035 7 12.8476V14.9319" stroke="#B6B6B6" stroke-width="1.5" stroke-linecap="round"/>
<path d="M21.0001 14.9319V12.8476C21.0001 12.4035 20.9333 12.2549 20.5914 12.0799C19.8795 11.7154 19.0152 11.4319 18.0834 11.4319C17.1516 11.4319 16.2873 11.7154 15.5754 12.0799C15.2335 12.2549 15.1667 12.4035 15.1667 12.8476V14.9319" stroke="#B6B6B6" stroke-width="1.5" stroke-linecap="round"/>
<path d="M24.5 14.9319V9.51928C24.5 8.71236 24.5 8.30891 24.2759 7.9279C24.0516 7.54689 23.7323 7.34967 23.0935 6.95525C20.518 5.36502 17.3825 4.43195 14 4.43195C10.6174 4.43195 7.482 5.36502 4.90651 6.95525C4.26771 7.34967 3.94832 7.54689 3.72415 7.9279C3.5 8.30891 3.5 8.71236 3.5 9.51928V14.9319" stroke="#B6B6B6" stroke-width="1.5" stroke-linecap="round"/>
</svg>
