<svg width="37" height="36" viewBox="0 0 37 36" fill="none" xmlns="http://www.w3.org/2000/svg">
<path d="M11 15V25.5" stroke="black" stroke-width="2.25" stroke-linecap="round" stroke-linejoin="round"/>
<path d="M17 19.5V25.5M17 19.5C17 17.0146 19.0146 15 21.5 15C23.9854 15 26 17.0146 26 19.5V25.5M17 19.5V15" stroke="black" stroke-width="2.25" stroke-linecap="round" stroke-linejoin="round"/>
<path d="M11.012 10.5H10.9985" stroke="black" stroke-width="3" stroke-linecap="round" stroke-linejoin="round"/>
<path d="M4.25 18C4.25 11.2825 4.25 7.92373 6.33686 5.83686C8.42373 3.75 11.7825 3.75 18.5 3.75C25.2175 3.75 28.5763 3.75 30.6632 5.83686C32.75 7.92373 32.75 11.2825 32.75 18C32.75 24.7175 32.75 28.0763 30.6632 30.1632C28.5763 32.25 25.2175 32.25 18.5 32.25C11.7825 32.25 8.42373 32.25 6.33686 30.1632C4.25 28.0763 4.25 24.7175 4.25 18Z" stroke="black" stroke-width="2.25" stroke-linejoin="round"/>
</svg>
