<svg width="28" height="29" viewBox="0 0 28 29" fill="none" xmlns="http://www.w3.org/2000/svg">
<path d="M15.8873 25.8601C15.3814 26.3338 14.7051 26.5986 14.0013 26.5986C13.2974 26.5986 12.6212 26.3338 12.1152 25.8601C7.48186 21.4956 1.27255 16.62 4.30065 9.54153C5.9379 5.71428 9.86806 3.26526 14.0013 3.26526C18.1345 3.26526 22.0647 5.71428 23.702 9.54153C26.7262 16.6111 20.5322 21.5106 15.8873 25.8601Z" stroke="#B6B6B6" stroke-width="1.5"/>
<path d="M18.0834 13.7653C18.0834 16.0204 16.2552 17.8486 14.0001 17.8486C11.7449 17.8486 9.91675 16.0204 9.91675 13.7653C9.91675 11.5101 11.7449 9.68195 14.0001 9.68195C16.2552 9.68195 18.0834 11.5101 18.0834 13.7653Z" stroke="#B6B6B6" stroke-width="1.5"/>
</svg>
