<svg width="444" height="104" viewBox="0 0 444 104" fill="none" xmlns="http://www.w3.org/2000/svg">
<path d="M78.7703 24.9273H92.6642V74.3733H78.7703V24.9273Z" fill="white"/>
<path d="M103.493 24.723H117.796L131.69 59.0491L145.379 24.723H159.478V74.1689H147.627V44.5422L136.594 74.1689H126.786L115.548 44.3379V74.1689H103.493C103.493 74.3733 103.493 24.723 103.493 24.723Z" fill="white"/>
<path d="M215.053 43.112C215.053 54.3497 206.676 61.2967 193.191 61.2967H184.405V74.169H170.511V24.9273H192.987C206.472 24.9273 215.053 31.8743 215.053 43.112ZM200.955 43.112C200.955 38.6169 198.095 35.7564 192.374 35.7564H184.405V50.2633H192.169C197.89 50.4676 200.955 47.8114 200.955 43.112Z" fill="white"/>
<path d="M262.865 63.5442V74.3733H223.226V24.9273H262.047V35.7564H237.12V44.1336H258.982V54.554H237.12V63.5442H262.865Z" fill="white"/>
<path d="M282.684 35.9607H267.564V24.9273H311.698V35.9607H296.782V74.169H282.888L282.684 35.9607Z" fill="white"/>
<path d="M317.419 52.3065V24.9273H331.313V51.8978C331.313 60.275 334.786 63.7485 340.712 63.7485C346.433 63.7485 350.11 60.275 350.11 51.8978V24.9273H363.8V52.3065C363.8 67.0177 355.219 75.3949 340.507 75.3949C326 75.3949 317.419 67.0177 317.419 52.3065Z" fill="white"/>
<path d="M439.195 29.0138C436.947 29.0138 434.904 27.1749 434.904 24.723C434.904 22.4755 436.743 20.4323 439.195 20.4323C441.647 20.4323 443.486 22.2712 443.486 24.723C443.486 27.1749 441.442 29.0138 439.195 29.0138ZM439.195 20.6366C436.947 20.6366 435.108 22.4755 435.108 24.723C435.108 26.9706 436.947 28.8095 439.195 28.8095C441.442 28.8095 443.281 26.9706 443.281 24.723C443.281 22.4755 441.442 20.6366 439.195 20.6366Z" fill="white"/>
<path d="M439.195 29.0138C436.743 29.0138 434.904 27.1749 434.904 24.723C434.904 22.2712 436.743 20.4323 439.195 20.4323C441.647 20.4323 443.486 22.2712 443.486 24.723C443.486 27.1749 441.442 29.0138 439.195 29.0138ZM439.195 20.6366C436.947 20.6366 434.904 22.4755 434.904 24.9273C434.904 27.1749 436.743 29.2181 439.195 29.2181C441.442 29.2181 443.486 27.3792 443.486 24.9273C443.281 22.4755 441.442 20.6366 439.195 20.6366ZM439.195 29.0138C436.947 29.0138 435.108 27.1749 435.108 24.9273C435.108 22.6798 436.947 20.8409 439.195 20.8409C441.442 20.8409 443.281 22.6798 443.281 24.9273C443.281 27.1749 441.442 29.0138 439.195 29.0138ZM439.195 20.8409C436.947 20.8409 435.108 22.6798 435.108 24.9273C435.108 27.1749 436.947 29.0138 439.195 29.0138C441.442 29.0138 443.281 27.1749 443.281 24.9273C443.281 22.6798 441.442 20.8409 439.195 20.8409Z" fill="white"/>
<path d="M438.173 26.7663H437.765V22.6798H438.991C439.195 22.6798 439.399 22.6798 439.604 22.6798C439.808 22.6798 440.012 22.6798 440.012 22.8841C440.217 22.8841 440.217 23.0885 440.217 23.2928C440.217 23.4971 440.421 23.7014 440.421 23.9057C440.421 24.1101 440.421 24.1101 440.421 24.3144C440.421 24.5187 440.217 24.5187 440.217 24.723C440.217 24.723 440.012 24.9274 439.808 24.9274C439.604 24.9274 439.604 24.9274 439.399 25.1317L440.625 27.1749H440.217L438.991 25.336H438.378L438.173 26.7663ZM438.173 24.5187H438.991C439.399 24.5187 439.604 24.5187 439.808 24.3144C440.012 24.1101 440.012 23.9057 440.012 23.7014C440.012 23.4971 440.012 23.4971 440.012 23.2928L439.808 23.0885C439.808 23.0885 439.604 23.0885 439.399 22.8841C439.195 22.8841 439.195 22.8841 438.991 22.8841H438.173V24.5187Z" fill="white"/>
<path d="M374.22 24.723H388.523L402.417 59.0491L416.106 24.723H430.204V74.1689H418.149V44.5422L407.116 74.3733H397.309L386.071 44.5422V74.3733H374.016L374.22 24.723Z" fill="white"/>
<path d="M283.092 88.6758H286.157V103.796H283.092V88.6758Z" fill="#D92741"/>
<path d="M302.503 88.6758V103.796H299.438L292.491 93.3752V103.796H289.426V88.6758H292.491L299.438 99.0962V88.6758H302.503Z" fill="#D92741"/>
<path d="M305.976 88.6758H309.45L314.353 99.9135L319.257 88.6758H322.73V103.796H319.666V93.9882L315.579 103.796H313.127L309.041 93.9882V103.796H305.976V88.6758Z" fill="#D92741"/>
<path d="M332.947 104C328.656 104 325.182 100.731 325.182 96.2357C325.182 91.7406 328.656 88.4714 332.947 88.4714C337.237 88.4714 340.711 91.7406 340.711 96.2357C340.711 100.731 337.237 104 332.947 104ZM332.947 101.344C335.603 101.344 337.646 99.3005 337.646 96.2357C337.646 93.1708 335.807 91.3319 332.947 91.3319C330.29 91.3319 328.247 93.1708 328.247 96.2357C328.247 99.3005 330.29 101.344 332.947 101.344Z" fill="#D92741"/>
<path d="M349.906 103.796H343.367V88.6758H349.701C352.766 88.6758 354.605 90.3104 354.605 92.5579C354.605 94.3968 353.584 95.6227 351.949 96.0314C353.584 96.2357 354.809 97.8703 354.809 99.7092C355.014 102.161 353.175 103.796 349.906 103.796ZM349.293 91.1276H346.432V95.0098H349.293C350.723 95.0098 351.54 94.3968 351.54 93.1709C351.54 91.9449 350.723 91.1276 349.293 91.1276ZM349.497 97.2573H346.432V101.344H349.497C350.927 101.344 351.745 100.526 351.745 99.3005C351.949 98.0746 350.927 97.2573 349.497 97.2573Z" fill="#D92741"/>
<path d="M357.874 88.6758H360.939V103.796H357.874V88.6758Z" fill="#D92741"/>
<path d="M367.273 88.6758V101.344H372.177V103.796H364.208V88.6758H367.273Z" fill="#D92741"/>
<path d="M374.833 88.6758H377.898V103.796H374.833V88.6758Z" fill="#D92741"/>
<path d="M390.566 100.935H384.64L383.619 103.796H380.35L385.866 88.6758H389.34L394.856 103.796H391.587L390.566 100.935ZM387.501 92.1493L385.253 98.4832H389.544L387.501 92.1493Z" fill="#D92741"/>
<path d="M402.825 88.6758C406.503 88.6758 408.342 90.719 408.342 93.3752C408.342 95.2141 407.32 97.053 404.868 97.666L408.546 103.796H405.072L401.803 97.8703H400.373V103.796H397.308V88.6758H402.825ZM402.825 91.1276H400.373V95.6227H402.825C404.459 95.6227 405.277 94.8054 405.277 93.3752C405.277 92.1493 404.459 91.1276 402.825 91.1276Z" fill="#D92741"/>
<path d="M411.611 88.6758H414.676V103.796H411.611V88.6758Z" fill="#D92741"/>
<path d="M427.344 100.935H421.418L420.397 103.796H417.128L422.644 88.6758H426.118L431.635 103.796H428.365L427.344 100.935ZM424.279 92.1493L422.031 98.4832H426.322L424.279 92.1493Z" fill="#D92741"/>
<path d="M267.768 94.8055H78.7703V97.4617H267.768V94.8055Z" fill="#D92741"/>
<path d="M26.8723 24.11L27.0766 35.3477L55.0688 57.0059L59.9725 53.5324" fill="#B11B29"/>
<path d="M26.8723 0V24.11L59.9725 53.5324V36.3694L26.8723 0Z" fill="#D92827"/>
<path d="M26.8722 0V24.11L2.96655 57.0059V42.0904" fill="#BE1E2D"/>
<path d="M2.96655 57.0059L7.66596 58.8448L27.0766 34.9391L26.8722 24.11" fill="url(#paint0_linear_56_281)"/>
<path d="M6.23584 58.8447L6.64448 66.8133L27.0767 51.2848L59.9726 69.6738V58.0275L27.0767 31.4656" fill="url(#paint1_linear_56_281)"/>
<path d="M59.9727 69.6739L57.5209 70.2869L56.2949 67.6307L59.9727 69.6739Z" fill="#AD1A27"/>
<path d="M23.8078 58.0275V45.7681L2.14966 69.4695V77.2337" fill="#EF4136"/>
<path d="M7.87068 77.6425L29.9375 60.888L23.8078 58.0275L2.14966 77.0295" fill="#BE1E2D"/>
<path d="M23.8074 45.7681V58.0275L58.3378 74.5776V64.3615" fill="#D92827"/>
<path d="M62.6285 74.9863L32.5931 58.6405L7.87012 78.0511V86.4283L21.764 78.2554L27.485 80.0943L32.5931 77.6425L62.6285 88.4715V74.9863Z" fill="#D92741"/>
<path d="M7.87012 77.6425V86.4283L21.9683 78.2554L27.0764 80.2987L32.5931 77.6425V58.6405" fill="#CC2641"/>
<path d="M23.8074 84.385L26.0549 80.2986L32.5932 77.2338L62.6286 88.4715L56.2946 89.6974L23.8074 84.385Z" fill="#B31F24"/>
<path d="M0.514648 93.5795L29.937 85.4067V81.5245" fill="#AD1A27"/>
<path d="M21.9685 78.2554V84.5894L28.7111 86.6326L32.3889 85.2024L57.3162 91.7407V89.9018" fill="#D92827"/>
<path d="M0.514648 90.1061L21.9685 78.2554V84.7937L0.514648 93.5796" fill="#BE1E2D"/>
<path d="M31.5717 84.5894V91.332L3.37524 96.4401V92.7623" fill="#B81D2B"/>
<path d="M31.5717 91.1277V92.558L3.37524 96.4401" fill="#92111D"/>
<path d="M63.2417 93.3753V97.8704L57.1121 99.3006L31.5718 96.6444V87.2456" fill="#AA1926"/>
<path d="M31.5718 91.1277V84.5894L63.2417 93.1709V97.8704" fill="#BE1E2D"/>
<path d="M6.84863 94.6012V104H25.2376V91.332L6.84863 94.6012Z" fill="#AD1A27"/>
<path d="M25.2375 91.332V104H58.1334V98.279" fill="#D32725"/>
<defs>
<linearGradient id="paint0_linear_56_281" x1="2.96655" y1="41.4774" x2="26.9948" y2="41.4774" gradientUnits="userSpaceOnUse">
<stop stop-color="#921610"/>
<stop offset="0.2448" stop-color="#961814"/>
<stop offset="0.652" stop-color="#A11B1E"/>
<stop offset="1" stop-color="#AA1F26"/>
</linearGradient>
<linearGradient id="paint1_linear_56_281" x1="6.17802" y1="65.6587" x2="55.0742" y2="45.9034" gradientUnits="userSpaceOnUse">
<stop stop-color="#BA231F"/>
<stop offset="0.4435" stop-color="#C02421"/>
<stop offset="1" stop-color="#CD2724"/>
</linearGradient>
</defs>
</svg>
