<svg width="300" height="72" viewBox="0 0 300 72" fill="none" xmlns="http://www.w3.org/2000/svg">
<path d="M52.9983 17.6651H62.4079V51.1522H52.9983V17.6651Z" fill="black"/>
<path d="M69.7419 17.5267H79.4283L88.8379 40.774L98.1091 17.5267H107.657V51.0138H99.6312V30.9492L92.1589 51.0138H85.5168L77.9061 30.8109V51.0138H69.7419C69.7419 51.1522 69.7419 17.5267 69.7419 17.5267Z" fill="black"/>
<path d="M145.295 29.9806C145.295 37.5913 139.622 42.2961 130.489 42.2961H124.539V51.0138H115.129V17.6651H130.351C139.484 17.6651 145.295 22.3699 145.295 29.9806ZM135.747 29.9806C135.747 26.9363 133.81 24.999 129.936 24.999H124.539V34.8238H129.797C133.672 34.9621 135.747 33.1633 135.747 29.9806Z" fill="black"/>
<path d="M177.675 43.8182V51.1522H150.83V17.6651H177.122V24.999H160.24V30.6725H175.046V37.7297H160.24V43.8182H177.675Z" fill="black"/>
<path d="M191.098 25.1374H180.858V17.6651H210.747V25.1374H200.646V51.0138H191.236L191.098 25.1374Z" fill="black"/>
<path d="M214.622 36.2075V17.6651H224.032V35.9308C224.032 41.6042 226.384 43.9566 230.397 43.9566C234.272 43.9566 236.762 41.6042 236.762 35.9308V17.6651H246.034V36.2075C246.034 46.1706 240.222 51.8441 230.259 51.8441C220.434 51.8441 214.622 46.1706 214.622 36.2075Z" fill="black"/>
<path d="M297.094 20.4327C295.572 20.4327 294.188 19.1873 294.188 17.5268C294.188 16.0046 295.434 14.6208 297.094 14.6208C298.755 14.6208 300 15.8662 300 17.5268C300 19.1873 298.617 20.4327 297.094 20.4327ZM297.094 14.7592C295.572 14.7592 294.327 16.0046 294.327 17.5268C294.327 19.0489 295.572 20.2943 297.094 20.2943C298.617 20.2943 299.862 19.0489 299.862 17.5268C299.862 16.0046 298.617 14.7592 297.094 14.7592Z" fill="black"/>
<path d="M297.094 20.4327C295.434 20.4327 294.188 19.1873 294.188 17.5268C294.188 15.8662 295.434 14.6208 297.094 14.6208C298.755 14.6208 300 15.8662 300 17.5268C300 19.1873 298.617 20.4327 297.094 20.4327ZM297.094 14.7592C295.572 14.7592 294.188 16.0046 294.188 17.6651C294.188 19.1873 295.434 20.571 297.094 20.571C298.617 20.571 300 19.3256 300 17.6651C299.862 16.0046 298.617 14.7592 297.094 14.7592ZM297.094 20.4327C295.572 20.4327 294.327 19.1873 294.327 17.6651C294.327 16.143 295.572 14.8976 297.094 14.8976C298.617 14.8976 299.862 16.143 299.862 17.6651C299.862 19.1873 298.617 20.4327 297.094 20.4327ZM297.094 14.8976C295.572 14.8976 294.327 16.143 294.327 17.6651C294.327 19.1873 295.572 20.4327 297.094 20.4327C298.617 20.4327 299.862 19.1873 299.862 17.6651C299.862 16.143 298.617 14.8976 297.094 14.8976Z" fill="black"/>
<path d="M296.402 18.9105H296.126V16.143H296.956C297.094 16.143 297.233 16.143 297.371 16.143C297.509 16.143 297.648 16.143 297.648 16.2814C297.786 16.2814 297.786 16.4198 297.786 16.5581C297.786 16.6965 297.925 16.8349 297.925 16.9733C297.925 17.1116 297.925 17.1116 297.925 17.25C297.925 17.3884 297.786 17.3884 297.786 17.5268C297.786 17.5268 297.648 17.6651 297.509 17.6651C297.371 17.6651 297.371 17.6651 297.233 17.8035L298.063 19.1873H297.786L296.956 17.9419H296.541L296.402 18.9105ZM296.402 17.3884H296.956C297.233 17.3884 297.371 17.3884 297.509 17.25C297.648 17.1116 297.648 16.9733 297.648 16.8349C297.648 16.6965 297.648 16.6965 297.648 16.5581L297.509 16.4198C297.509 16.4198 297.371 16.4198 297.233 16.2814C297.094 16.2814 297.094 16.2814 296.956 16.2814H296.402V17.3884Z" fill="black"/>
<path d="M253.091 17.5267H262.777L272.186 40.774L281.458 17.5267H291.006V51.0138H282.841V30.9492L275.369 51.1522H268.727L261.116 30.9492V51.1522H252.952L253.091 17.5267Z" fill="black"/>
<path d="M191.375 60.8385H193.45V71.0784H191.375V60.8385Z" fill="#D92741"/>
<path d="M204.52 60.8385V71.0784H202.445L197.74 64.0212V71.0784H195.664V60.8385H197.74L202.445 67.8957V60.8385H204.52Z" fill="#D92741"/>
<path d="M206.873 60.8385H209.225L212.546 68.4492L215.867 60.8385H218.219V71.0784H216.144V64.4363L213.376 71.0784H211.716L208.948 64.4363V71.0784H206.873V60.8385Z" fill="#D92741"/>
<path d="M225.138 71.2167C222.232 71.2167 219.88 69.0027 219.88 65.9584C219.88 62.9142 222.232 60.7001 225.138 60.7001C228.044 60.7001 230.396 62.9142 230.396 65.9584C230.396 69.0027 228.044 71.2167 225.138 71.2167ZM225.138 69.4178C226.937 69.4178 228.321 68.0341 228.321 65.9584C228.321 63.8828 227.075 62.6374 225.138 62.6374C223.339 62.6374 221.956 63.8828 221.956 65.9584C221.956 68.0341 223.339 69.4178 225.138 69.4178Z" fill="#D92741"/>
<path d="M236.624 71.0784H232.196V60.8385H236.485C238.561 60.8385 239.806 61.9455 239.806 63.4676C239.806 64.713 239.114 65.5433 238.007 65.82C239.114 65.9584 239.945 67.0654 239.945 68.3108C240.083 69.9713 238.838 71.0784 236.624 71.0784ZM236.208 62.499H234.271V65.1282H236.208C237.177 65.1282 237.731 64.713 237.731 63.8828C237.731 63.0525 237.177 62.499 236.208 62.499ZM236.347 66.6503H234.271V69.4178H236.347C237.315 69.4178 237.869 68.8643 237.869 68.0341C238.007 67.2038 237.315 66.6503 236.347 66.6503Z" fill="#D92741"/>
<path d="M242.02 60.8385H244.096V71.0784H242.02V60.8385Z" fill="#D92741"/>
<path d="M248.385 60.8385V69.4178H251.706V71.0784H246.31V60.8385H248.385Z" fill="#D92741"/>
<path d="M253.506 60.8385H255.581V71.0784H253.506V60.8385Z" fill="#D92741"/>
<path d="M264.161 69.1411H260.148L259.456 71.0784H257.242L260.978 60.8385H263.33L267.066 71.0784H264.852L264.161 69.1411ZM262.085 63.1909L260.563 67.4806H263.469L262.085 63.1909Z" fill="#D92741"/>
<path d="M272.463 60.8385C274.954 60.8385 276.199 62.2223 276.199 64.0212C276.199 65.2665 275.507 66.5119 273.847 66.9271L276.338 71.0784H273.985L271.771 67.0654H270.802V71.0784H268.727V60.8385H272.463ZM272.463 62.499H270.802V65.5433H272.463C273.57 65.5433 274.123 64.9898 274.123 64.0212C274.123 63.1909 273.57 62.499 272.463 62.499Z" fill="#D92741"/>
<path d="M278.413 60.8385H280.489V71.0784H278.413V60.8385Z" fill="#D92741"/>
<path d="M289.068 69.1411H285.055L284.363 71.0784H282.149L285.886 60.8385H288.238L291.974 71.0784H289.76L289.068 69.1411ZM286.993 63.1909L285.47 67.4806H288.376L286.993 63.1909Z" fill="#D92741"/>
<path d="M180.996 64.9899H52.9983V66.7888H180.996V64.9899Z" fill="#D92741"/>
<path d="M17.8506 17.1116L17.989 24.7223L36.9465 39.3902L40.2676 37.0378" fill="#B11B29"/>
<path d="M17.8506 0.783203V17.1116L40.2676 37.0378V25.4142L17.8506 0.783203Z" fill="#D92827"/>
<path d="M17.8504 0.783203V17.1116L1.6604 39.3902V29.2887" fill="#BE1E2D"/>
<path d="M1.6604 39.3902L4.84306 40.6356L17.9888 24.4455L17.8504 17.1116" fill="url(#paint0_linear_56_181)"/>
<path d="M3.87451 40.6356L4.15126 46.0323L17.9889 35.5156L40.2675 47.9695V40.0821L17.9889 22.0931" fill="url(#paint1_linear_56_181)"/>
<path d="M40.2676 47.9696L38.6071 48.3847L37.7769 46.5858L40.2676 47.9696Z" fill="#AD1A27"/>
<path d="M15.7751 40.0821V31.7795L1.10718 47.8311V53.0894" fill="#EF4136"/>
<path d="M4.98172 53.3662L19.9264 42.0194L15.7751 40.0821L1.10718 52.9511" fill="#BE1E2D"/>
<path d="M15.7749 31.7795V40.0821L39.1605 51.2906V44.3717" fill="#D92827"/>
<path d="M42.0663 51.5674L21.725 40.4973L4.98145 53.643V59.3164L14.391 53.7814L18.2656 55.0268L21.725 53.3663L42.0663 60.7002V51.5674Z" fill="#D92741"/>
<path d="M4.98145 53.3663V59.3164L14.5294 53.7814L17.9888 55.1651L21.725 53.3663V40.4973" fill="#CC2641"/>
<path d="M15.7749 57.9327L17.297 55.1651L21.7251 53.0895L42.0664 60.7002L37.7767 61.5304L15.7749 57.9327Z" fill="#B31F24"/>
<path d="M0 64.1596L19.9262 58.6245V55.9954" fill="#AD1A27"/>
<path d="M14.5295 53.7814V58.071L19.096 59.4548L21.5867 58.4862L38.4687 62.9142V61.6688" fill="#D92827"/>
<path d="M0 61.8072L14.5295 53.7814V58.2094L0 64.1596" fill="#BE1E2D"/>
<path d="M21.0332 58.071V62.6375L1.93726 66.0969V63.6061" fill="#B81D2B"/>
<path d="M21.0332 62.4991V63.4677L1.93726 66.0969" fill="#92111D"/>
<path d="M42.4815 64.0212V67.0655L38.3303 68.0341L21.0332 66.2352V59.8699" fill="#AA1926"/>
<path d="M21.0332 62.4991V58.071L42.4815 63.8828V67.0655" fill="#BE1E2D"/>
<path d="M4.28955 64.8515V71.2168H16.7434V62.6375L4.28955 64.8515Z" fill="#AD1A27"/>
<path d="M16.7434 62.6375V71.2168H39.022V67.3422" fill="#D32725"/>
<defs>
<linearGradient id="paint0_linear_56_181" x1="1.6604" y1="28.8736" x2="17.9335" y2="28.8736" gradientUnits="userSpaceOnUse">
<stop stop-color="#921610"/>
<stop offset="0.2448" stop-color="#961814"/>
<stop offset="0.652" stop-color="#A11B1E"/>
<stop offset="1" stop-color="#AA1F26"/>
</linearGradient>
<linearGradient id="paint1_linear_56_181" x1="3.83535" y1="45.2503" x2="36.9501" y2="31.8711" gradientUnits="userSpaceOnUse">
<stop stop-color="#BA231F"/>
<stop offset="0.4435" stop-color="#C02421"/>
<stop offset="1" stop-color="#CD2724"/>
</linearGradient>
</defs>
</svg>
