<svg width="28" height="29" viewBox="0 0 28 29" fill="none" xmlns="http://www.w3.org/2000/svg">
<path d="M8.16699 10.4167L11.5993 12.446C13.6004 13.6291 14.4003 13.6291 16.4013 12.446L19.8337 10.4167" stroke="#B6B6B6" stroke-width="1.5" stroke-linecap="round" stroke-linejoin="round"/>
<path d="M2.3514 16.2215C2.42768 19.7979 2.4658 21.5862 3.78546 22.9108C5.10511 24.2356 6.94173 24.2817 10.615 24.374C12.8789 24.4309 15.1205 24.4309 17.3844 24.374C21.0577 24.2817 22.8942 24.2356 24.2138 22.9108C25.5336 21.5862 25.5717 19.7979 25.6479 16.2215C25.6725 15.0715 25.6725 13.9283 25.6479 12.7785C25.5717 9.20195 25.5336 7.41372 24.2138 6.08905C22.8942 4.76439 21.0577 4.71824 17.3844 4.62595C15.1205 4.56906 12.8789 4.56906 10.615 4.62594C6.94173 4.71822 5.10511 4.76436 3.78546 6.08904C2.4658 7.41371 2.42767 9.20194 2.3514 12.7783C2.32688 13.9283 2.32688 15.0715 2.3514 16.2215Z" stroke="#B6B6B6" stroke-width="1.5" stroke-linejoin="round"/>
</svg>
