<svg width="28" height="29" viewBox="0 0 28 29" fill="none" xmlns="http://www.w3.org/2000/svg">
<path d="M24.4999 21.2319C24.4999 23.2119 24.4999 24.2018 23.7405 24.8169C22.9813 25.4319 21.7591 25.4319 19.3148 25.4319H18.0184C15.5741 25.4319 14.3519 25.4319 13.5926 24.8169C12.8333 24.2018 12.8333 23.2119 12.8333 21.2319V8.63195C12.8333 6.65204 12.8333 5.6621 13.5926 5.04702C14.3519 4.43195 15.5741 4.43195 18.0184 4.43195H19.3148C21.7591 4.43195 22.9813 4.43195 23.7405 5.04702C24.4999 5.6621 24.4999 6.65204 24.4999 8.63195V21.2319Z" stroke="#B6B6B6" stroke-width="1.5" stroke-linejoin="round"/>
<path d="M3.5 6.81307C3.5 5.69059 3.5 5.12936 3.84171 4.78065C4.18342 4.43195 4.73339 4.43195 5.83333 4.43195C6.93328 4.43195 7.48324 4.43195 7.82496 4.78065C8.16667 5.12936 8.16667 5.69059 8.16667 6.81307V19.4676C8.16667 20.5263 8.16667 21.0557 8.07834 21.5677C7.9975 22.0364 7.8619 22.4935 7.67442 22.9291C7.46957 23.4052 7.18182 23.8456 6.60634 24.7266C6.34992 25.119 6.2217 25.3153 6.06068 25.3849C5.91535 25.4476 5.75132 25.4476 5.60598 25.3849C5.44496 25.3153 5.31674 25.119 5.06032 24.7266C4.48484 23.8456 4.1971 23.4052 3.99225 22.9292C3.80477 22.4935 3.66916 22.0364 3.58833 21.5677C3.5 21.0557 3.5 20.5263 3.5 19.4676V6.81307Z" stroke="#B6B6B6" stroke-width="1.5" stroke-linejoin="round"/>
<path d="M13.4167 20.1819H15.7501" stroke="#B6B6B6" stroke-width="1.5" stroke-linecap="round" stroke-linejoin="round"/>
<path d="M13.4167 14.9319H15.7501" stroke="#B6B6B6" stroke-width="1.5" stroke-linecap="round" stroke-linejoin="round"/>
<path d="M13.4167 9.68195H15.7501" stroke="#B6B6B6" stroke-width="1.5" stroke-linecap="round" stroke-linejoin="round"/>
<path d="M8.16667 9.0986C8.16667 9.74293 7.122 10.2653 5.83333 10.2653C4.54467 10.2653 3.5 9.74293 3.5 9.0986" stroke="#B6B6B6" stroke-width="1.5"/>
</svg>
