<svg width="28" height="29" viewBox="0 0 28 29" fill="none" xmlns="http://www.w3.org/2000/svg">
<path d="M10.6846 7.16427L10.2149 6.10729C9.9077 5.41619 9.75412 5.07063 9.52444 4.80618C9.23659 4.47476 8.86138 4.23093 8.44162 4.10249C8.10668 4 7.72853 4 6.97224 4C5.86589 4 5.31272 4 4.84835 4.21267C4.30135 4.46319 3.80734 5.00716 3.61052 5.5757C3.44343 6.05834 3.49129 6.55433 3.58701 7.54632C4.60589 18.1052 10.3948 23.8941 20.9536 24.913C21.9456 25.0087 22.4417 25.0566 22.9242 24.8895C23.4929 24.6927 24.0368 24.1986 24.2874 23.6517C24.5 23.1872 24.5 22.6341 24.5 21.5278C24.5 20.7714 24.4999 20.3933 24.3975 20.0583C24.2691 19.6386 24.0252 19.2634 23.6938 18.9756C23.4294 18.7458 23.0839 18.5923 22.3927 18.2851L21.3357 17.8153C20.5873 17.4827 20.213 17.3164 19.8328 17.2803C19.4688 17.2456 19.1019 17.2967 18.7612 17.4294C18.4053 17.568 18.0907 17.8301 17.4614 18.3544C16.8352 18.8764 16.522 19.1374 16.1394 19.2771C15.8001 19.401 15.3516 19.447 14.9944 19.3943C14.5913 19.3349 14.2827 19.17 13.6655 18.8401C11.7451 17.8139 10.6861 16.7549 9.65985 14.8345C9.32999 14.2173 9.16507 13.9086 9.10568 13.5057C9.05303 13.1483 9.09892 12.6998 9.22285 12.3607C9.36264 11.978 9.62361 11.6648 10.1456 11.0385C10.6699 10.4093 10.9321 10.0947 11.0707 9.73873C11.2033 9.3981 11.2544 9.03113 11.2198 8.66723C11.1836 8.28694 11.0173 7.91272 10.6846 7.16427Z" stroke="#B6B6B6" stroke-width="1.5" stroke-linecap="round"/>
</svg>
