<svg width="37" height="36" viewBox="0 0 37 36" fill="none" xmlns="http://www.w3.org/2000/svg">
<path d="M18.5 30.75C21.2146 30.75 23.8177 30.4818 26.2301 29.9901C29.2435 29.3759 30.7502 29.0686 32.1251 27.3009C33.5 25.5331 33.5 23.504 33.5 19.4453V16.5547C33.5 12.4961 33.5 10.4668 32.1251 8.69905C30.7502 6.93132 29.2435 6.62419 26.2301 6.00993C23.8177 5.51815 21.2146 5.25 18.5 5.25C15.7854 5.25 13.1823 5.51815 10.7698 6.00993C7.75649 6.62419 6.24981 6.93132 4.8749 8.69905C3.5 10.4668 3.5 12.4961 3.5 16.5547V19.4453C3.5 23.504 3.5 25.5331 4.8749 27.3009C6.24981 29.0686 7.75649 29.3759 10.7698 29.9901C13.1823 30.4818 15.7854 30.75 18.5 30.75Z" stroke="black" stroke-width="2.25"/>
<path d="M24.4432 18.4693C24.2206 19.378 23.0361 20.0307 20.6673 21.3361C18.0908 22.7557 16.8026 23.4657 15.7592 23.1922C15.4058 23.0995 15.0803 22.9366 14.807 22.7157C14 22.0633 14 20.7088 14 18C14 15.2911 14 13.9367 14.807 13.2843C15.0803 13.0633 15.4058 12.9004 15.7592 12.8078C16.8026 12.5343 18.0908 13.2442 20.6673 14.6639C23.0361 15.9693 24.2206 16.6219 24.4432 17.5306C24.5189 17.8399 24.5189 18.16 24.4432 18.4693Z" stroke="black" stroke-width="2.25" stroke-linejoin="round"/>
</svg>
